<svg width="214" height="182" viewBox="0 0 214 182" fill="none" xmlns="http://www.w3.org/2000/svg">
<g clip-path="url(#clip0_45_10)">
<ellipse cx="107" cy="106.227" rx="103" ry="101.716" fill="#D9D9D9"/>
<path fill-rule="evenodd" clip-rule="evenodd" d="M49.7448 82.1255C46.8311 82.1255 40.1068 81.786 37.7464 82.564C34.944 83.4872 32.6 86.0028 32.0893 89.3493C31.8045 91.2154 31.9944 137.423 31.9944 139.187C31.9944 142.606 31.5328 148.069 32.8488 150.799C34.0339 153.258 36.8003 155.596 40.5913 155.54C40.9776 154.125 41.8124 152.325 42.3559 150.918L51.3424 127.858C52.6879 124.37 54.0989 121.973 56.5281 120.213C59.9099 117.76 62.8498 118.369 67.528 118.386C71.7872 118.402 76.0464 118.416 80.3089 118.432L143.824 118.663C146.871 118.673 153.589 118.297 156.005 119.279C161.067 121.337 162.314 126.493 163.617 130.855C164.114 132.517 164.635 134.195 165.126 135.83L169.605 150.561C170.053 152.015 170.839 154.158 171.091 155.556C174.738 155.556 177.832 155.586 180.388 152.071C182.585 149.055 182.009 145.214 182.009 140.98V96.2499C182.009 94.2981 182.15 91.7099 181.973 89.8438C181.633 86.2435 179.203 83.6191 176.444 82.6333C173.419 81.5519 167.735 82.419 164.213 82.0992C164.213 76.458 164.245 70.8036 164.213 65.1625C164.183 60.2367 160.661 56.5738 155.825 56.4584V82.1156L58.1257 82.1288V56.5012C55.7915 56.2243 53.1168 57.9288 52.1314 58.9608C50.8906 60.2565 49.7677 62.393 49.7415 65.0306C49.6826 70.7113 49.7448 76.4349 49.7448 82.1255Z" fill="#1D1E1B"/>
<path fill-rule="evenodd" clip-rule="evenodd" d="M164.619 155.55C164.36 154.201 157.469 131.9 156.762 129.599C156.251 127.941 155.829 126.968 154.843 125.93C153.534 124.555 152.935 124.931 150.279 124.921C135.433 124.868 120.59 124.812 105.743 124.759C104.787 124.756 62.2801 124.426 61.2325 124.68C58.7739 125.28 57.3957 129.444 56.6721 131.31C55.8668 133.391 47.4892 154.557 47.2633 155.55H53.4442C53.418 156.071 49.2243 167.287 48.6841 168.754L43.8684 182.025L162.501 182.021L156.696 155.553L164.619 155.55ZM66.2676 132.398H147.493C147.883 132.504 147.811 132.922 147.975 133.734L150.037 143.901C150.816 147.779 151.592 151.64 152.394 155.543C153.976 163.235 155.56 170.973 157.066 178.705L49.0082 178.695L66.2676 132.398Z" fill="#1D1E1B"/>
<path d="M108.591 101.993C109.467 101.111 109.467 99.681 108.591 98.799C107.716 97.9171 106.296 97.9171 105.42 98.799C104.544 99.681 104.544 101.111 105.42 101.993C106.296 102.875 107.716 102.875 108.591 101.993Z" stroke="#FCC005" stroke-width="2" stroke-miterlimit="22.926"/>
<path d="M107.007 99.2338V101.558" stroke="#FCC005" stroke-width="2" stroke-miterlimit="22.926"/>
<path d="M148.937 25.7765H64.8075V75.0271H148.937V25.7765Z" fill="#FDC300"/>
<path fill-rule="evenodd" clip-rule="evenodd" d="M63.1902 77.1834H150.846L150.82 24.2335H63.4816H63.1902V77.1834ZM66.3036 27.6031L66.7685 27.547L66.8962 27.5569H147.238L147.703 27.5899V73.804L66.3036 73.86V27.6031Z" fill="#1D1E1B"/>
<path fill-rule="evenodd" clip-rule="evenodd" d="M148.181 129.494H64.4638L46.3663 180.831H158.68L148.181 129.494Z" fill="#FDC300"/>
<path fill-rule="evenodd" clip-rule="evenodd" d="M58.5349 173.1L148.967 173.12L148.806 171.778H146.564H57.8802L58.9507 171.781L58.5349 173.1Z" fill="#040007"/>
<path fill-rule="evenodd" clip-rule="evenodd" d="M61.9429 163.367L147.336 163.37L147.127 162.065L62.7417 162.028C62.2703 162.028 62.231 162.164 61.9429 163.367Z" fill="#040007"/>
<path fill-rule="evenodd" clip-rule="evenodd" d="M60.1718 168.382L148.04 168.392L148.21 168.388L148.004 167.136L60.5941 167.103L60.1718 168.382Z" fill="#040007"/>
<path fill-rule="evenodd" clip-rule="evenodd" d="M65.3673 153.618H145.67L145.467 152.279L66.009 152.276C65.6521 152.447 65.8027 152.266 65.5997 152.794C65.5212 153.001 65.4328 153.351 65.3673 153.618Z" fill="#040007"/>
<path fill-rule="evenodd" clip-rule="evenodd" d="M63.5897 158.629L146.521 158.639L146.312 157.343L146.439 157.35H64.1593L64.0349 157.337L63.5897 158.629Z" fill="#040007"/>
<path fill-rule="evenodd" clip-rule="evenodd" d="M67.0173 148.867L144.865 148.89C144.776 148.188 144.819 147.7 144.469 147.601H67.6099C67.2334 147.828 67.1155 148.451 67.0173 148.867Z" fill="#040007"/>
<path fill-rule="evenodd" clip-rule="evenodd" d="M68.7753 143.852L143.977 143.865L143.81 142.579L69.1878 142.523L68.7753 143.852Z" fill="#040007"/>
<path fill-rule="evenodd" clip-rule="evenodd" d="M70.4319 139.121L143.169 139.134L142.989 137.845L70.8542 137.848L70.4319 139.121Z" fill="#040007"/>
<path d="M107 0.765503C48.0588 0.765503 0.281189 48.8853 0.281189 108.241C0.281189 167.597 48.0621 215.717 107 215.717C165.938 215.717 213.719 167.597 213.719 108.241C213.719 48.8853 165.941 0.765503 107 0.765503ZM107 210.082C51.1492 210.082 5.87609 164.485 5.87609 108.241C5.87609 51.9976 51.1492 6.40008 107 6.40008C162.851 6.40008 208.124 51.9976 208.124 108.241C208.124 164.485 162.851 210.082 107 210.082Z" fill="black" stroke="#1D1E1B" stroke-width="0.25" stroke-miterlimit="22.926"/>
</g>
<defs>
<clipPath id="clip0_45_10">
<rect width="214" height="215.518" fill="white" transform="translate(0 0.4823)"/>
</clipPath>
</defs>
</svg>
