<svg width="43" height="46" viewBox="0 0 43 46" fill="none" xmlns="http://www.w3.org/2000/svg">
<g clip-path="url(#clip0_48_47)">
<path d="M13.2569 9.43741C12.8544 9.3786 12.444 9.4594 12.0938 9.66634H12.0639C11.251 10.1429 10.5187 10.7451 9.89416 11.4508C9.37518 12.0508 9.09364 12.658 9.01972 13.2424C8.97563 13.5907 9.00548 13.9391 9.10929 14.2718L9.14625 14.2945C9.73064 16.0122 10.4942 17.6644 11.4269 19.2199C12.6285 21.4052 14.1071 23.4263 15.8262 25.2331L15.8774 25.3069L15.9585 25.3667L16.0096 25.4263L16.0694 25.4777C17.8827 27.2017 19.9085 28.6874 22.0982 29.8981C24.6007 31.2603 26.1193 31.9044 27.0306 32.1718V32.1859C27.2979 32.2671 27.541 32.304 27.7857 32.304C28.5624 32.247 29.2978 31.9317 29.8743 31.4083C30.5768 30.7836 31.1724 30.0483 31.6375 29.2314V29.2171C32.0739 28.3953 31.9262 27.6175 31.2963 27.0914C30.0347 25.9888 28.6707 25.0095 27.2225 24.1666C26.2527 23.6406 25.2676 23.9591 24.868 24.4923L24.0163 25.5656C23.5797 26.0989 22.7863 26.025 22.7863 26.025L22.7635 26.0393C16.8471 24.5278 15.2689 18.5374 15.2689 18.5374C15.2689 18.5374 15.1949 17.7227 15.7423 17.3075L16.8087 16.4487C17.3192 16.0335 17.6747 15.0495 17.1272 14.0784C16.2903 12.6283 15.3131 11.2639 14.2096 10.0047C13.9683 9.70789 13.6298 9.50594 13.2541 9.43457L13.2569 9.43741Z" fill="#B5B5B5"/>
<path d="M23.255 6.8335C22.6567 6.8335 22.1716 7.31853 22.1716 7.91683C22.1716 8.51513 22.6567 9.00016 23.255 9.00016C25.9947 9.00016 28.2712 9.89569 30.0698 11.6105C30.9956 12.5495 31.7162 13.661 32.1894 14.8773C32.6644 16.0983 32.8804 17.4001 32.8249 18.7043C32.7996 19.3018 33.2634 19.8071 33.8612 19.8324C34.459 19.858 34.9643 19.3939 34.9896 18.7961C35.0579 17.1919 34.7918 15.5913 34.2086 14.0918C33.6253 12.5925 32.7376 11.2261 31.5999 10.0759L31.5782 10.055C29.3465 7.92082 26.5177 6.8335 23.255 6.8335Z" fill="#B5B5B5"/>
<path d="M23.1813 10.3962C22.5831 10.3962 22.098 10.8813 22.098 11.4796C22.098 12.0779 22.5831 12.5629 23.1813 12.5629H23.2166C25.1937 12.7022 26.6321 13.3612 27.6407 14.4429C28.6731 15.5569 29.2079 16.9406 29.1682 18.6527C29.1544 19.2507 29.6282 19.7469 30.2262 19.7607C30.8244 19.7746 31.3206 19.301 31.3345 18.7028C31.3865 16.4549 30.6634 14.5165 29.2287 12.9688L29.2267 12.9667C27.7608 11.3936 25.7494 10.5613 23.3265 10.3987L23.2903 10.3962H23.1813Z" fill="#B5B5B5"/>
<path d="M23.1403 14.024C22.5428 13.9925 22.0329 14.4514 22.0015 15.0489C21.9701 15.6464 22.429 16.1562 23.0264 16.1877C23.9335 16.2354 24.5116 16.5075 24.8752 16.8746C25.2405 17.2433 25.5135 17.8337 25.5633 18.7593C25.5956 19.3569 26.1058 19.8151 26.7034 19.7828C27.3008 19.7508 27.759 19.2405 27.7269 18.6429C27.657 17.3429 27.2501 16.1936 26.4148 15.35C25.5778 14.5049 24.4349 14.0921 23.1403 14.024Z" fill="#B5B5B5"/>
<path fill-rule="evenodd" clip-rule="evenodd" d="M11.3112 1.16441C18.2057 -0.376742 25.3555 -0.376742 32.2501 1.16441L32.9848 1.3286C37.0945 2.24724 40.338 5.39935 41.3739 9.48109C43.1239 16.3772 43.1239 23.6014 41.3739 30.4975C40.338 34.5792 37.0943 37.7313 32.9848 38.65L32.2501 38.8142C27.9193 39.7823 23.4879 40.1422 19.0822 39.8941L13.3336 45.0375C12.8921 45.4325 12.2708 45.556 11.7119 45.3599C11.153 45.1638 10.7451 44.6791 10.6473 44.0948L9.69654 38.4153C6.00803 37.2691 3.14825 34.2831 2.18755 30.4975C0.437485 23.6014 0.437485 16.3772 2.18755 9.48109C3.22336 5.39935 6.46699 2.24724 10.5767 1.3286L11.3112 1.16441ZM31.5411 4.33613C25.1135 2.89937 18.448 2.89937 12.0202 4.33613L11.2857 4.50034C8.37186 5.15164 6.0721 7.38653 5.33768 10.2805C3.72077 16.652 3.72077 23.3264 5.33768 29.698C6.0721 32.592 8.37184 34.8269 11.2857 35.4782L11.4797 35.5215C12.1251 35.6658 12.6187 36.1869 12.7279 36.8391L13.3655 40.6481L17.4223 37.0182C17.7499 36.7251 18.1821 36.5771 18.6207 36.6083C22.9399 36.914 27.2925 36.5921 31.5411 35.6424L32.2756 35.4782C35.1896 34.8269 37.4893 32.592 38.2238 29.698C39.8405 23.3264 39.8405 16.652 38.2238 10.2805C37.4893 7.38653 35.1896 5.15166 32.2756 4.50034L31.5411 4.33613Z" fill="#B5B5B5"/>
</g>
<defs>
<clipPath id="clip0_48_47">
<rect width="43" height="46" fill="white"/>
</clipPath>
</defs>
</svg>
