<?xml version="1.0" encoding="utf-8"?>
<!-- Generator: Adobe Illustrator 27.2.0, SVG Export Plug-In . SVG Version: 6.00 Build 0)  -->
<svg version="1.1" id="Слой_1" xmlns="http://www.w3.org/2000/svg" xmlns:xlink="http://www.w3.org/1999/xlink" x="0px" y="0px"
	 viewBox="0 0 1417.32 566.93" style="enable-background:new 0 0 1417.32 566.93;" xml:space="preserve">
<style type="text/css">
	.st0{fill:none;}
	.st1{fill-rule:evenodd;clip-rule:evenodd;fill:#1D1E1B;}
	.st2{fill:none;stroke:#FCC005;stroke-width:2;stroke-miterlimit:22.926;}
	.st3{fill-rule:evenodd;clip-rule:evenodd;fill:#FDC300;}
	.st4{fill-rule:evenodd;clip-rule:evenodd;fill:#040007;}
	.st5{stroke:#1D1E1B;stroke-width:0.25;stroke-miterlimit:22.926;}
</style>
<g>
	<polygon points="898.09,352.81 877.65,352.81 877.65,233.36 854.8,233.36 854.8,352.81 834.35,352.81 834.35,214.12 898.09,214.12 
			"/>
	<path d="M919.18,214.12h28.26c6.41,0,12.06,1.44,16.94,4.31c4.88,2.88,8.65,6.78,11.32,11.73c2.67,4.95,4.01,10.42,4.01,16.44
		v23.85c0,6.01-1.34,11.49-4.01,16.43c-2.68,4.95-6.45,8.85-11.32,11.73c-4.88,2.88-10.52,4.31-16.94,4.31h-7.82v49.91h-20.44
		V214.12z M946.84,283.66c4.01,0,7.08-1.23,9.22-3.71c2.14-2.47,3.21-5.84,3.21-10.12v-22.65c0-4.27-1.07-7.65-3.21-10.12
		c-2.14-2.47-5.21-3.71-9.22-3.71h-7.22v50.31H946.84z"/>
	<polygon points="1068.55,214.12 1068.55,352.81 1048.11,352.81 1048.11,272.04 1019.05,352.81 1000.81,352.81 1000.81,214.12 
		1021.25,214.12 1021.25,295.29 1050.31,214.12 	"/>
	<polygon points="1089.65,214.12 1110.09,214.12 1110.09,270.84 1134.14,270.84 1134.14,214.12 1154.58,214.12 1154.58,352.81 
		1134.14,352.81 1134.14,290.08 1110.09,290.08 1110.09,352.81 1089.65,352.81 	"/>
	<polygon points="1175.68,214.12 1242.22,214.12 1242.22,233.36 1219.17,233.36 1219.17,352.81 1198.73,352.81 1198.73,233.36 
		1175.68,233.36 	"/>
</g>
<g>
	<path d="M695.29,172.45c15.89,19.11,23.84,43.27,23.84,72.49v67.91c0,29.22-7.95,53.39-23.84,72.49
		c-15.89,19.11-37.49,30.91-64.78,35.4v39.98h-49.13v-39.98c-27.3-4.49-48.89-16.29-64.78-35.4c-15.89-19.1-23.84-43.26-23.84-72.49
		v-67.91c0-29.21,7.95-53.38,23.84-72.49c15.89-19.1,37.48-30.9,64.78-35.4v-30.82h49.13v30.82
		C657.8,141.55,679.4,153.35,695.29,172.45 M552.01,351.62c6.74,10.44,16.53,17.58,29.38,21.43V184.73
		c-12.85,3.85-22.64,11-29.38,21.43c-6.74,10.44-10.11,23.84-10.11,40.22v65.02C541.89,327.78,545.26,341.19,552.01,351.62
		 M670.01,246.38c0-16.38-3.37-29.78-10.11-40.22c-6.74-10.43-16.54-17.58-29.38-21.43v188.32c12.84-3.85,22.64-10.99,29.38-21.43
		c6.74-10.43,10.11-23.84,10.11-40.22V246.38z"/>
	<path d="M810.85,399.87c6.17,8.51,14.6,12.77,25.28,12.77c10.68,0,19.1-4.26,25.28-12.77c6.01-8.28,9.09-19.49,9.26-33.62h51.08
		v0.32c0,18.02-3.59,34.22-10.76,48.57c-7.18,14.35-17.27,25.53-30.29,33.55c-13.02,8.01-27.87,12.02-44.56,12.02
		c-16.7,0-31.54-4.01-44.56-12.02c-13.02-8.01-23.12-19.19-30.29-33.55c-7.18-14.35-10.76-30.54-10.76-48.57V200.35
		c0-18.02,3.58-34.21,10.76-48.57c7.17-14.35,17.27-25.54,30.29-33.55c13.02-8.01,27.87-12.02,44.56-12.02
		c16.69,0,31.54,4.01,44.56,12.02c13.02,8.01,23.11,19.2,30.29,33.55c7.17,14.36,10.76,30.54,10.76,48.57v0.32h-51.08
		c-0.16-14.13-3.25-25.34-9.26-33.62c-6.18-8.51-14.61-12.77-25.28-12.77c-10.69,0-19.11,4.26-25.28,12.77
		c-6.18,8.51-9.26,20.11-9.26,34.8v163.22C801.59,379.77,804.67,391.36,810.85,399.87"/>
	<path d="M1064.2,460.71h-51.83v-92.54h51.83V460.71z M953.94,106.22h168.69v49.18h-58.43v43.36h-51.83V155.4h-58.43V106.22z"/>
	<path d="M1213.55,399.87c6.17,8.51,14.6,12.77,25.28,12.77c10.68,0,19.1-4.26,25.29-12.77c6.17-8.51,9.26-20.11,9.26-34.8V201.85
		c0-14.68-3.09-26.29-9.26-34.8c-6.18-8.51-14.61-12.77-25.29-12.77c-10.69,0-19.11,4.26-25.28,12.77
		c-6.01,8.28-9.09,19.49-9.26,33.62h-51.08v-0.32c0-18.02,3.58-34.21,10.77-48.57c7.17-14.35,17.27-25.54,30.29-33.55
		c13.02-8.01,27.87-12.02,44.56-12.02c16.69,0,31.54,4.01,44.56,12.02c13.02,8.01,23.11,19.2,30.29,33.55
		c7.17,14.36,10.77,30.54,10.77,48.57v166.23c0,18.02-3.59,34.22-10.77,48.57c-7.18,14.35-17.27,25.53-30.29,33.55
		c-13.02,8.01-27.87,12.02-44.56,12.02c-16.69,0-31.54-4.01-44.56-12.02c-13.02-8.01-23.12-19.19-30.29-33.55
		c-7.18-14.35-10.77-30.54-10.77-48.57v-0.32h51.08C1204.45,380.39,1207.53,391.59,1213.55,399.87"/>
</g>
<rect class="st0" width="1417.32" height="566.93"/>
<g>
	<g>
		<path class="st1" d="M180.34,234.13c-5.17,0-17.09-0.6-21.27,0.77c-4.97,1.63-9.12,6.06-10.03,11.95
			c-0.51,3.28-0.17,84.63-0.17,87.74c0,6.02-0.82,15.64,1.52,20.44c2.1,4.33,7.01,8.45,13.73,8.35c0.68-2.49,2.16-5.66,3.13-8.14
			l15.93-40.6c2.39-6.14,4.89-10.36,9.19-13.46c6-4.32,11.21-3.24,19.5-3.22c7.55,0.03,15.1,0.05,22.66,0.08l112.61,0.4
			c5.4,0.02,17.32-0.64,21.6,1.08c8.97,3.62,11.19,12.7,13.5,20.38c0.88,2.92,1.8,5.88,2.68,8.76l7.94,25.93
			c0.79,2.56,2.19,6.33,2.64,8.79c6.47,0,11.95,0.05,16.49-6.14c3.89-5.31,2.88-12.07,2.88-19.53v-78.74
			c0-3.43,0.25-7.99-0.06-11.28c-0.6-6.34-4.91-10.96-9.8-12.7c-5.36-1.91-15.44-0.37-21.69-0.94c0-9.93,0.06-19.89,0-29.82
			c-0.05-8.67-6.3-15.12-14.87-15.32v45.17l-173.22,0.02v-45.12c-4.14-0.49-8.88,2.51-10.63,4.33c-2.2,2.28-4.19,6.04-4.24,10.69
			C180.23,214.03,180.34,224.11,180.34,234.13"/>
		<path class="st1" d="M384,363.39c-0.46-2.37-12.67-41.64-13.93-45.69c-0.91-2.92-1.66-4.63-3.4-6.46
			c-2.32-2.42-3.38-1.76-8.09-1.78c-26.32-0.09-52.64-0.19-78.96-0.28c-1.7-0.01-77.06-0.59-78.92-0.14
			c-4.36,1.05-6.8,8.39-8.08,11.67c-1.43,3.66-16.28,40.93-16.68,42.68h10.96c-0.05,0.92-7.48,20.66-8.44,23.24L169.91,410
			l210.33-0.01l-10.29-46.6L384,363.39z M209.63,322.63l144.01,0c0.69,0.18,0.57,0.92,0.85,2.35l3.66,17.9
			c1.38,6.83,2.75,13.62,4.18,20.49c2.81,13.54,5.61,27.16,8.28,40.77l-191.58-0.01L209.63,322.63z"/>
		
			<ellipse transform="matrix(0.7071 -0.7071 0.7071 0.7071 -105.7428 277.2983)" class="st2" cx="281.86" cy="266.29" rx="3.97" ry="3.97"/>
		<line class="st2" x1="281.86" y1="264.25" x2="281.86" y2="268.34"/>
		<rect x="207.04" y="134.92" class="st3" width="149.16" height="86.7"/>
		<path class="st1" d="M204.17,225.43h155.41l-0.05-93.22H204.69h-0.52V225.43z M209.7,138.14l0.82-0.1l0.23,0.02h142.45l0.83,0.06
			l0,81.36l-144.32,0.1V138.14z"/>
		<polygon class="st3" points="354.86,317.52 206.43,317.52 174.35,407.9 373.47,407.9 		"/>
		<g>
			<polygon class="st4" points="195.92,394.29 356.26,394.32 355.97,391.96 351.99,391.96 194.76,391.96 196.66,391.97 			"/>
			<path class="st4" d="M201.96,377.15l151.4,0l-0.37-2.3l-149.61-0.06C202.54,374.79,202.48,375.03,201.96,377.15"/>
			<polygon class="st4" points="198.82,385.98 354.61,386 354.91,385.99 354.55,383.79 199.57,383.73 			"/>
			<path class="st4" d="M208.03,359.99h142.38l-0.36-2.36l-140.88,0c-0.63,0.3-0.37-0.02-0.72,0.91
				C208.31,358.91,208.15,359.52,208.03,359.99"/>
			<polygon class="st4" points="204.88,368.81 351.92,368.83 351.55,366.55 351.77,366.56 205.89,366.56 205.67,366.54 			"/>
			<path class="st4" d="M210.96,351.62l138.02,0.04c-0.16-1.24-0.08-2.1-0.7-2.27H212.01C211.34,349.8,211.14,350.89,210.96,351.62"
				/>
			<polygon class="st4" points="214.08,342.8 347.41,342.82 347.11,340.55 214.81,340.46 			"/>
			<polygon class="st4" points="217.01,334.47 345.97,334.49 345.66,332.22 217.76,332.23 			"/>
		</g>
	</g>
	<path class="st5" d="M281.85,90.89c-104.5,0-189.21,84.71-189.21,189.21s84.71,189.21,189.21,189.21S471.06,384.6,471.06,280.1
		S386.35,90.89,281.85,90.89z M281.85,459.4c-99.02,0-179.29-80.27-179.29-179.29s80.27-179.29,179.29-179.29
		s179.29,80.27,179.29,179.29S380.87,459.4,281.85,459.4z"/>
</g>
</svg>
