<svg width="24" height="25" viewBox="0 0 24 25" fill="none" xmlns="http://www.w3.org/2000/svg">
<g clip-path="url(#clip0_41_60)">
<path d="M13.8688 18.7106L20.0597 12.2681L13.8688 5.82556C13.8129 5.74955 13.7419 5.68686 13.6605 5.64174C13.5792 5.59662 13.4894 5.57012 13.3973 5.56404C13.3052 5.55795 13.2129 5.57243 13.1267 5.60648C13.0405 5.64053 12.9623 5.69336 12.8975 5.7614C12.8327 5.82944 12.7828 5.9111 12.7512 6.00084C12.7195 6.09059 12.7068 6.18633 12.714 6.28158C12.7212 6.37683 12.7481 6.46937 12.7928 6.55294C12.8376 6.6365 12.8991 6.70914 12.9733 6.76593L17.6052 11.6012H5.28145C5.11059 11.6012 4.94673 11.6714 4.82592 11.7965C4.70511 11.9216 4.63723 12.0912 4.63723 12.2681C4.63723 12.445 4.70511 12.6146 4.82592 12.7397C4.94673 12.8648 5.11059 12.935 5.28145 12.935H17.6052L12.9733 17.7703C12.8529 17.8958 12.7856 18.0658 12.7862 18.2428C12.7868 18.4198 12.8553 18.5893 12.9766 18.714C13.0979 18.8387 13.2621 18.9084 13.433 18.9077C13.604 18.9071 13.7677 18.8362 13.8881 18.7106H13.8688Z" fill="black"/>
</g>
<defs>
<clipPath id="clip0_41_60">
<rect width="24.0094" height="23.1917" fill="white" transform="matrix(0 1 -1 0 23.925 0.263367)"/>
</clipPath>
</defs>
</svg>
